<?xml version="1.0" encoding="UTF-8"?>
<!DOCTYPE svg PUBLIC "-//W3C//DTD SVG 1.1//EN" "http://www.w3.org/Graphics/SVG/1.1/DTD/svg11.dtd">
<!-- Creator: CorelDRAW -->
<svg xmlns="http://www.w3.org/2000/svg" xml:space="preserve" width="16.1713mm" height="16.1713mm" version="1.1" style="shape-rendering:geometricPrecision; text-rendering:geometricPrecision; image-rendering:optimizeQuality; fill-rule:evenodd; clip-rule:evenodd"
viewBox="0 0 124.02 124.02"
 xmlns:xlink="http://www.w3.org/1999/xlink"
 xmlns:xodm="http://www.corel.com/coreldraw/odm/2003">
 <defs>
  <style type="text/css">
   <![CDATA[
    .fil0 {fill:#09669B}
    .fil1 {fill:white}
   ]]>
  </style>
 </defs>
 <g id="Camada_x0020_1">
  <metadata id="CorelCorpID_0Corel-Layer"/>
  <rect class="fil0" x="0" y="0" width="124.02" height="124.02" rx="19.72" ry="19.72"/>
  <path class="fil1" d="M55.04 31.19c-19.12,4.04 -30.42,23.49 -24.97,42.44 0.91,2.6 2.29,7.47 7.25,12.39 7.47,-19.4 21.34,-33.66 45.67,-38.3 -0.86,2.78 -8.82,11.98 -4.55,26.1 1.57,3.91 5.77,9.34 10.12,10.19 2.01,-2.02 5.05,-8.04 5.62,-11.42 6.85,-24.79 -15.25,-46.46 -39.15,-41.4zm46.98 54.2c-1.29,2.46 -7.17,10.94 -10.25,12.57 -16.01,-3.08 -24.39,-14.18 -26.85,-29.73 -15.02,9.9 -20.53,34.22 -20.72,37.32 -12.66,-5.09 -23.84,-18.91 -26.6,-32.33 -4.93,-23.97 10.51,-48.04 34.43,-53.56 24.84,-5.73 47.3,9.67 53.59,31.94 3.21,11.36 1.88,23.35 -3.61,33.79z"/>
 </g>
</svg>
