<?xml version="1.0" standalone="no"?>
<svg xmlns="http://www.w3.org/2000/svg" version="1.1" width="350" height="350">
	<!-- Created with https://api.qrserver.com (QR Code API, see goQR.me/api for information) -->
	<title>QR Code</title>
	<desc>https://ecosurf.app</desc>
	<rect style="fill:rgb(255, 255, 255);fill-opacity:1" x="0" y="0" width="350" height="350" />
	<g id="elements">
		<path style="fill:rgb(0, 0, 0)" d="M 0,0 l 14,0 0,14 -14,0 z M 14,0 l 14,0 0,14 -14,0 z M 28,0 l 14,0 0,14 -14,0 z M 42,0 l 14,0 0,14 -14,0 z M 56,0 l 14,0 0,14 -14,0 z M 70,0 l 14,0 0,14 -14,0 z M 84,0 l 14,0 0,14 -14,0 z M 140,0 l 14,0 0,14 -14,0 z M 168,0 l 14,0 0,14 -14,0 z M 196,0 l 14,0 0,14 -14,0 z M 224,0 l 14,0 0,14 -14,0 z M 252,0 l 14,0 0,14 -14,0 z M 266,0 l 14,0 0,14 -14,0 z M 280,0 l 14,0 0,14 -14,0 z M 294,0 l 14,0 0,14 -14,0 z M 308,0 l 14,0 0,14 -14,0 z M 322,0 l 14,0 0,14 -14,0 z M 336,0 l 14,0 0,14 -14,0 z M 0,14 l 14,0 0,14 -14,0 z M 84,14 l 14,0 0,14 -14,0 z M 112,14 l 14,0 0,14 -14,0 z M 140,14 l 14,0 0,14 -14,0 z M 210,14 l 14,0 0,14 -14,0 z M 224,14 l 14,0 0,14 -14,0 z M 252,14 l 14,0 0,14 -14,0 z M 336,14 l 14,0 0,14 -14,0 z M 0,28 l 14,0 0,14 -14,0 z M 28,28 l 14,0 0,14 -14,0 z M 42,28 l 14,0 0,14 -14,0 z M 56,28 l 14,0 0,14 -14,0 z M 84,28 l 14,0 0,14 -14,0 z M 168,28 l 14,0 0,14 -14,0 z M 210,28 l 14,0 0,14 -14,0 z M 252,28 l 14,0 0,14 -14,0 z M 280,28 l 14,0 0,14 -14,0 z M 294,28 l 14,0 0,14 -14,0 z M 308,28 l 14,0 0,14 -14,0 z M 336,28 l 14,0 0,14 -14,0 z M 0,42 l 14,0 0,14 -14,0 z M 28,42 l 14,0 0,14 -14,0 z M 42,42 l 14,0 0,14 -14,0 z M 56,42 l 14,0 0,14 -14,0 z M 84,42 l 14,0 0,14 -14,0 z M 112,42 l 14,0 0,14 -14,0 z M 126,42 l 14,0 0,14 -14,0 z M 140,42 l 14,0 0,14 -14,0 z M 168,42 l 14,0 0,14 -14,0 z M 182,42 l 14,0 0,14 -14,0 z M 196,42 l 14,0 0,14 -14,0 z M 210,42 l 14,0 0,14 -14,0 z M 252,42 l 14,0 0,14 -14,0 z M 280,42 l 14,0 0,14 -14,0 z M 294,42 l 14,0 0,14 -14,0 z M 308,42 l 14,0 0,14 -14,0 z M 336,42 l 14,0 0,14 -14,0 z M 0,56 l 14,0 0,14 -14,0 z M 28,56 l 14,0 0,14 -14,0 z M 42,56 l 14,0 0,14 -14,0 z M 56,56 l 14,0 0,14 -14,0 z M 84,56 l 14,0 0,14 -14,0 z M 126,56 l 14,0 0,14 -14,0 z M 196,56 l 14,0 0,14 -14,0 z M 224,56 l 14,0 0,14 -14,0 z M 252,56 l 14,0 0,14 -14,0 z M 280,56 l 14,0 0,14 -14,0 z M 294,56 l 14,0 0,14 -14,0 z M 308,56 l 14,0 0,14 -14,0 z M 336,56 l 14,0 0,14 -14,0 z M 0,70 l 14,0 0,14 -14,0 z M 84,70 l 14,0 0,14 -14,0 z M 112,70 l 14,0 0,14 -14,0 z M 126,70 l 14,0 0,14 -14,0 z M 154,70 l 14,0 0,14 -14,0 z M 168,70 l 14,0 0,14 -14,0 z M 210,70 l 14,0 0,14 -14,0 z M 252,70 l 14,0 0,14 -14,0 z M 336,70 l 14,0 0,14 -14,0 z M 0,84 l 14,0 0,14 -14,0 z M 14,84 l 14,0 0,14 -14,0 z M 28,84 l 14,0 0,14 -14,0 z M 42,84 l 14,0 0,14 -14,0 z M 56,84 l 14,0 0,14 -14,0 z M 70,84 l 14,0 0,14 -14,0 z M 84,84 l 14,0 0,14 -14,0 z M 112,84 l 14,0 0,14 -14,0 z M 140,84 l 14,0 0,14 -14,0 z M 168,84 l 14,0 0,14 -14,0 z M 196,84 l 14,0 0,14 -14,0 z M 224,84 l 14,0 0,14 -14,0 z M 252,84 l 14,0 0,14 -14,0 z M 266,84 l 14,0 0,14 -14,0 z M 280,84 l 14,0 0,14 -14,0 z M 294,84 l 14,0 0,14 -14,0 z M 308,84 l 14,0 0,14 -14,0 z M 322,84 l 14,0 0,14 -14,0 z M 336,84 l 14,0 0,14 -14,0 z M 126,98 l 14,0 0,14 -14,0 z M 140,98 l 14,0 0,14 -14,0 z M 154,98 l 14,0 0,14 -14,0 z M 224,98 l 14,0 0,14 -14,0 z M 0,112 l 14,0 0,14 -14,0 z M 14,112 l 14,0 0,14 -14,0 z M 28,112 l 14,0 0,14 -14,0 z M 42,112 l 14,0 0,14 -14,0 z M 56,112 l 14,0 0,14 -14,0 z M 84,112 l 14,0 0,14 -14,0 z M 98,112 l 14,0 0,14 -14,0 z M 112,112 l 14,0 0,14 -14,0 z M 126,112 l 14,0 0,14 -14,0 z M 154,112 l 14,0 0,14 -14,0 z M 238,112 l 14,0 0,14 -14,0 z M 266,112 l 14,0 0,14 -14,0 z M 294,112 l 14,0 0,14 -14,0 z M 322,112 l 14,0 0,14 -14,0 z M 14,126 l 14,0 0,14 -14,0 z M 28,126 l 14,0 0,14 -14,0 z M 56,126 l 14,0 0,14 -14,0 z M 70,126 l 14,0 0,14 -14,0 z M 112,126 l 14,0 0,14 -14,0 z M 140,126 l 14,0 0,14 -14,0 z M 168,126 l 14,0 0,14 -14,0 z M 182,126 l 14,0 0,14 -14,0 z M 266,126 l 14,0 0,14 -14,0 z M 322,126 l 14,0 0,14 -14,0 z M 0,140 l 14,0 0,14 -14,0 z M 14,140 l 14,0 0,14 -14,0 z M 42,140 l 14,0 0,14 -14,0 z M 70,140 l 14,0 0,14 -14,0 z M 84,140 l 14,0 0,14 -14,0 z M 98,140 l 14,0 0,14 -14,0 z M 140,140 l 14,0 0,14 -14,0 z M 182,140 l 14,0 0,14 -14,0 z M 196,140 l 14,0 0,14 -14,0 z M 210,140 l 14,0 0,14 -14,0 z M 252,140 l 14,0 0,14 -14,0 z M 266,140 l 14,0 0,14 -14,0 z M 294,140 l 14,0 0,14 -14,0 z M 322,140 l 14,0 0,14 -14,0 z M 336,140 l 14,0 0,14 -14,0 z M 14,154 l 14,0 0,14 -14,0 z M 42,154 l 14,0 0,14 -14,0 z M 56,154 l 14,0 0,14 -14,0 z M 70,154 l 14,0 0,14 -14,0 z M 112,154 l 14,0 0,14 -14,0 z M 168,154 l 14,0 0,14 -14,0 z M 182,154 l 14,0 0,14 -14,0 z M 224,154 l 14,0 0,14 -14,0 z M 238,154 l 14,0 0,14 -14,0 z M 266,154 l 14,0 0,14 -14,0 z M 336,154 l 14,0 0,14 -14,0 z M 14,168 l 14,0 0,14 -14,0 z M 28,168 l 14,0 0,14 -14,0 z M 84,168 l 14,0 0,14 -14,0 z M 112,168 l 14,0 0,14 -14,0 z M 126,168 l 14,0 0,14 -14,0 z M 140,168 l 14,0 0,14 -14,0 z M 168,168 l 14,0 0,14 -14,0 z M 196,168 l 14,0 0,14 -14,0 z M 210,168 l 14,0 0,14 -14,0 z M 238,168 l 14,0 0,14 -14,0 z M 252,168 l 14,0 0,14 -14,0 z M 280,168 l 14,0 0,14 -14,0 z M 308,168 l 14,0 0,14 -14,0 z M 322,168 l 14,0 0,14 -14,0 z M 336,168 l 14,0 0,14 -14,0 z M 0,182 l 14,0 0,14 -14,0 z M 28,182 l 14,0 0,14 -14,0 z M 56,182 l 14,0 0,14 -14,0 z M 70,182 l 14,0 0,14 -14,0 z M 126,182 l 14,0 0,14 -14,0 z M 224,182 l 14,0 0,14 -14,0 z M 266,182 l 14,0 0,14 -14,0 z M 294,182 l 14,0 0,14 -14,0 z M 322,182 l 14,0 0,14 -14,0 z M 0,196 l 14,0 0,14 -14,0 z M 28,196 l 14,0 0,14 -14,0 z M 42,196 l 14,0 0,14 -14,0 z M 56,196 l 14,0 0,14 -14,0 z M 70,196 l 14,0 0,14 -14,0 z M 84,196 l 14,0 0,14 -14,0 z M 98,196 l 14,0 0,14 -14,0 z M 126,196 l 14,0 0,14 -14,0 z M 140,196 l 14,0 0,14 -14,0 z M 154,196 l 14,0 0,14 -14,0 z M 168,196 l 14,0 0,14 -14,0 z M 210,196 l 14,0 0,14 -14,0 z M 238,196 l 14,0 0,14 -14,0 z M 266,196 l 14,0 0,14 -14,0 z M 280,196 l 14,0 0,14 -14,0 z M 294,196 l 14,0 0,14 -14,0 z M 322,196 l 14,0 0,14 -14,0 z M 336,196 l 14,0 0,14 -14,0 z M 0,210 l 14,0 0,14 -14,0 z M 28,210 l 14,0 0,14 -14,0 z M 56,210 l 14,0 0,14 -14,0 z M 70,210 l 14,0 0,14 -14,0 z M 98,210 l 14,0 0,14 -14,0 z M 140,210 l 14,0 0,14 -14,0 z M 154,210 l 14,0 0,14 -14,0 z M 196,210 l 14,0 0,14 -14,0 z M 238,210 l 14,0 0,14 -14,0 z M 266,210 l 14,0 0,14 -14,0 z M 280,210 l 14,0 0,14 -14,0 z M 336,210 l 14,0 0,14 -14,0 z M 0,224 l 14,0 0,14 -14,0 z M 28,224 l 14,0 0,14 -14,0 z M 56,224 l 14,0 0,14 -14,0 z M 84,224 l 14,0 0,14 -14,0 z M 98,224 l 14,0 0,14 -14,0 z M 126,224 l 14,0 0,14 -14,0 z M 140,224 l 14,0 0,14 -14,0 z M 154,224 l 14,0 0,14 -14,0 z M 210,224 l 14,0 0,14 -14,0 z M 224,224 l 14,0 0,14 -14,0 z M 238,224 l 14,0 0,14 -14,0 z M 252,224 l 14,0 0,14 -14,0 z M 266,224 l 14,0 0,14 -14,0 z M 280,224 l 14,0 0,14 -14,0 z M 308,224 l 14,0 0,14 -14,0 z M 112,238 l 14,0 0,14 -14,0 z M 140,238 l 14,0 0,14 -14,0 z M 168,238 l 14,0 0,14 -14,0 z M 182,238 l 14,0 0,14 -14,0 z M 196,238 l 14,0 0,14 -14,0 z M 224,238 l 14,0 0,14 -14,0 z M 280,238 l 14,0 0,14 -14,0 z M 294,238 l 14,0 0,14 -14,0 z M 0,252 l 14,0 0,14 -14,0 z M 14,252 l 14,0 0,14 -14,0 z M 28,252 l 14,0 0,14 -14,0 z M 42,252 l 14,0 0,14 -14,0 z M 56,252 l 14,0 0,14 -14,0 z M 70,252 l 14,0 0,14 -14,0 z M 84,252 l 14,0 0,14 -14,0 z M 112,252 l 14,0 0,14 -14,0 z M 140,252 l 14,0 0,14 -14,0 z M 182,252 l 14,0 0,14 -14,0 z M 196,252 l 14,0 0,14 -14,0 z M 224,252 l 14,0 0,14 -14,0 z M 252,252 l 14,0 0,14 -14,0 z M 280,252 l 14,0 0,14 -14,0 z M 308,252 l 14,0 0,14 -14,0 z M 322,252 l 14,0 0,14 -14,0 z M 336,252 l 14,0 0,14 -14,0 z M 0,266 l 14,0 0,14 -14,0 z M 84,266 l 14,0 0,14 -14,0 z M 126,266 l 14,0 0,14 -14,0 z M 140,266 l 14,0 0,14 -14,0 z M 168,266 l 14,0 0,14 -14,0 z M 182,266 l 14,0 0,14 -14,0 z M 224,266 l 14,0 0,14 -14,0 z M 280,266 l 14,0 0,14 -14,0 z M 294,266 l 14,0 0,14 -14,0 z M 322,266 l 14,0 0,14 -14,0 z M 0,280 l 14,0 0,14 -14,0 z M 28,280 l 14,0 0,14 -14,0 z M 42,280 l 14,0 0,14 -14,0 z M 56,280 l 14,0 0,14 -14,0 z M 84,280 l 14,0 0,14 -14,0 z M 112,280 l 14,0 0,14 -14,0 z M 168,280 l 14,0 0,14 -14,0 z M 196,280 l 14,0 0,14 -14,0 z M 210,280 l 14,0 0,14 -14,0 z M 224,280 l 14,0 0,14 -14,0 z M 238,280 l 14,0 0,14 -14,0 z M 252,280 l 14,0 0,14 -14,0 z M 266,280 l 14,0 0,14 -14,0 z M 280,280 l 14,0 0,14 -14,0 z M 308,280 l 14,0 0,14 -14,0 z M 336,280 l 14,0 0,14 -14,0 z M 0,294 l 14,0 0,14 -14,0 z M 28,294 l 14,0 0,14 -14,0 z M 42,294 l 14,0 0,14 -14,0 z M 56,294 l 14,0 0,14 -14,0 z M 84,294 l 14,0 0,14 -14,0 z M 112,294 l 14,0 0,14 -14,0 z M 126,294 l 14,0 0,14 -14,0 z M 238,294 l 14,0 0,14 -14,0 z M 252,294 l 14,0 0,14 -14,0 z M 280,294 l 14,0 0,14 -14,0 z M 294,294 l 14,0 0,14 -14,0 z M 308,294 l 14,0 0,14 -14,0 z M 322,294 l 14,0 0,14 -14,0 z M 336,294 l 14,0 0,14 -14,0 z M 0,308 l 14,0 0,14 -14,0 z M 28,308 l 14,0 0,14 -14,0 z M 42,308 l 14,0 0,14 -14,0 z M 56,308 l 14,0 0,14 -14,0 z M 84,308 l 14,0 0,14 -14,0 z M 112,308 l 14,0 0,14 -14,0 z M 126,308 l 14,0 0,14 -14,0 z M 154,308 l 14,0 0,14 -14,0 z M 168,308 l 14,0 0,14 -14,0 z M 238,308 l 14,0 0,14 -14,0 z M 294,308 l 14,0 0,14 -14,0 z M 308,308 l 14,0 0,14 -14,0 z M 336,308 l 14,0 0,14 -14,0 z M 0,322 l 14,0 0,14 -14,0 z M 84,322 l 14,0 0,14 -14,0 z M 112,322 l 14,0 0,14 -14,0 z M 126,322 l 14,0 0,14 -14,0 z M 140,322 l 14,0 0,14 -14,0 z M 154,322 l 14,0 0,14 -14,0 z M 196,322 l 14,0 0,14 -14,0 z M 224,322 l 14,0 0,14 -14,0 z M 252,322 l 14,0 0,14 -14,0 z M 266,322 l 14,0 0,14 -14,0 z M 280,322 l 14,0 0,14 -14,0 z M 294,322 l 14,0 0,14 -14,0 z M 336,322 l 14,0 0,14 -14,0 z M 0,336 l 14,0 0,14 -14,0 z M 14,336 l 14,0 0,14 -14,0 z M 28,336 l 14,0 0,14 -14,0 z M 42,336 l 14,0 0,14 -14,0 z M 56,336 l 14,0 0,14 -14,0 z M 70,336 l 14,0 0,14 -14,0 z M 84,336 l 14,0 0,14 -14,0 z M 112,336 l 14,0 0,14 -14,0 z M 126,336 l 14,0 0,14 -14,0 z M 140,336 l 14,0 0,14 -14,0 z M 154,336 l 14,0 0,14 -14,0 z M 238,336 l 14,0 0,14 -14,0 z M 266,336 l 14,0 0,14 -14,0 z M 280,336 l 14,0 0,14 -14,0 z M 294,336 l 14,0 0,14 -14,0 z M 308,336 l 14,0 0,14 -14,0 z M 322,336 l 14,0 0,14 -14,0 z M 336,336 l 14,0 0,14 -14,0 z " />
	</g>
</svg>
